<svg xmlns="http://www.w3.org/2000/svg" width="32.199" height="35.777" viewBox="0 0 32.199 35.777">
    <path data-name="Icon material-event-available" d="m28.7 19.5-1.9-1.9-8.73 8.73-3.792-3.792-1.9 1.9 5.689 5.689zm4.422-14.422h-1.789V1.5h-3.578v3.578H13.444V1.5H9.867v3.578H8.078a3.561 3.561 0 0 0-3.56 3.578L4.5 33.7a3.577 3.577 0 0 0 3.578 3.578h25.044A3.588 3.588 0 0 0 36.7 33.7V8.655a3.588 3.588 0 0 0-3.578-3.577zm0 28.622H8.078V14.022h25.044z" transform="translate(-4.5 -1.5)" style="fill:#fff"/>
</svg>
