<svg xmlns="http://www.w3.org/2000/svg" width="42.497" height="34.771" viewBox="0 0 42.497 34.771">
    <path data-name="1.562111180163448e+23" d="M41.809 23.176a9.17 9.17 0 0 0-2.843-1.932 6.27 6.27 0 1 0-8.227-9.379 7.715 7.715 0 0 0-14.98 0 6.27 6.27 0 1 0-8.224 9.38A9.188 9.188 0 0 0 2 29.663v4.347a4.835 4.835 0 0 0 4.829 4.829h6.786a4.807 4.807 0 0 0 3.838 1.932h11.59a4.807 4.807 0 0 0 3.838-1.932h6.786A4.835 4.835 0 0 0 44.5 34.01v-4.347a9.113 9.113 0 0 0-2.688-6.488zM35.322 11.8a4.351 4.351 0 1 1-3.072 1.27 4.346 4.346 0 0 1 3.072-1.27zm-5.171 10.29a10.607 10.607 0 0 0-2.887-1.769 7.785 7.785 0 0 0 2.18-1.991 6.294 6.294 0 0 0 2.241 2.924 9.269 9.269 0 0 0-1.534.836zm-6.9-14.154a5.8 5.8 0 1 1-4.1 1.7 5.8 5.8 0 0 1 4.1-1.7zm-6.9 14.154a9.269 9.269 0 0 0-1.534-.836 6.294 6.294 0 0 0 2.241-2.924 7.785 7.785 0 0 0 2.18 1.991 10.607 10.607 0 0 0-2.887 1.769zm-9.522-5.949A4.351 4.351 0 1 1 8.1 19.213a4.347 4.347 0 0 1-1.271-3.072zm0 20.766a2.9 2.9 0 0 1-2.9-2.9v-4.344A7.233 7.233 0 0 1 14.971 23.5a10.564 10.564 0 0 0-2.347 6.644v5.8a4.834 4.834 0 0 0 .1.966zm25.112-.966a2.9 2.9 0 0 1-2.9 2.9H17.454a2.9 2.9 0 0 1-2.9-2.9v-5.8a8.693 8.693 0 1 1 17.385 0zm10.625-1.931a2.9 2.9 0 0 1-2.9 2.9h-5.889a4.835 4.835 0 0 0 .1-.966v-5.8a10.564 10.564 0 0 0-2.351-6.644 7.238 7.238 0 0 1 11.04 6.161z" transform="translate(-2 -5.999)" style="fill:#fff"/>
</svg>
