<svg xmlns="http://www.w3.org/2000/svg" width="46.5" height="37.551" viewBox="0 0 46.5 37.551">
    <path data-name="Icon awesome-school" d="M0 15.75v19.125A1.125 1.125 0 0 0 1.125 36H6.75V13.5h-4.5A2.25 2.25 0 0 0 0 15.75zm25.313-3.375h-1.688V9.563A.562.562 0 0 0 23.063 9h-1.125a.562.562 0 0 0-.562.563v4.5a.562.562 0 0 0 .563.563h3.375a.562.562 0 0 0 .563-.562v-1.126a.562.562 0 0 0-.564-.563zM35 7.878 23.748.378a2.251 2.251 0 0 0-2.5 0L10 7.878A2.25 2.25 0 0 0 9 9.75V36h9V25.875a1.125 1.125 0 0 1 1.125-1.125h6.75A1.125 1.125 0 0 1 27 25.875V36h9V9.75a2.25 2.25 0 0 0-1-1.872zM22.5 18a5.625 5.625 0 1 1 5.625-5.625A5.625 5.625 0 0 1 22.5 18zm20.25-4.5h-4.5V36h5.625A1.125 1.125 0 0 0 45 34.875V15.75a2.25 2.25 0 0 0-2.25-2.25z" transform="translate(.75 .801)" style="fill:none;stroke:#fff;stroke-width:1.5px"/>
</svg>
